<?xml version="1.0" standalone="no"?>
<!DOCTYPE svg PUBLIC "-//W3C//DTD SVG 20010904//EN"
 "http://www.w3.org/TR/2001/REC-SVG-20010904/DTD/svg10.dtd">
<svg version="1.0" xmlns="http://www.w3.org/2000/svg"
 width="1000.000000pt" height="1000.000000pt" viewBox="0 0 1000.000000 1000.000000"
 preserveAspectRatio="xMidYMid meet">
<metadata>
Created by potrace 1.14, written by Peter Selinger 2001-2017
</metadata>
<g transform="translate(0.000000,1000.000000) scale(0.100000,-0.100000)"
fill="#000000" stroke="none">
<path d="M4735 9993 c-1555 -82 -2995 -897 -3874 -2193 -1191 -1755 -1141
-4084 123 -5785 267 -358 616 -714 961 -980 750 -578 1611 -921 2557 -1020
204 -21 802 -21 1006 0 818 86 1557 348 2236 792 310 203 572 419 837 689 390
399 679 808 924 1309 262 537 416 1077 480 1687 21 203 21 802 0 1006 -94 907
-422 1754 -959 2477 -282 379 -662 759 -1041 1041 -931 691 -2085 1039 -3250
977z"/>
</g>
</svg>
